<?xml version="1.0" encoding="utf-8"?>
<!-- Generator: Adobe Illustrator 22.1.0, SVG Export Plug-In . SVG Version: 6.00 Build 0)  -->
<svg version="1.1"
	 id="svg1" inkscape:version="0.40" sodipodi:docbase="/home/danny/work/flat/SVG/mono/scalable/actions" sodipodi:docname="question_mark.svg" sodipodi:version="0.32" xmlns:cc="http://web.resource.org/cc/" xmlns:dc="http://purl.org/dc/elements/1.1/" xmlns:inkscape="http://www.inkscape.org/namespaces/inkscape" xmlns:ns1="http://sozi.baierouge.fr" xmlns:rdf="http://www.w3.org/1999/02/22-rdf-syntax-ns#" xmlns:sodipodi="http://sodipodi.sourceforge.net/DTD/sodipodi-0.dtd"
	 xmlns="http://www.w3.org/2000/svg" xmlns:xlink="http://www.w3.org/1999/xlink" x="0px" y="0px" viewBox="0 0 60 60"
	 style="enable-background:new 0 0 60 60;" xml:space="preserve">
<style type="text/css">
	.st0{fill:none;stroke:#FFFFFF;stroke-width:4.8951;stroke-linecap:round;stroke-linejoin:round;}
	.st1{fill:#FFFFFF;}
</style>
<sodipodi:namedview  bordercolor="#666666" borderopacity="1.0" id="base" inkscape:current-layer="svg1" inkscape:cx="84.070710" inkscape:cy="25.336379" inkscape:pageopacity="0.0000000" inkscape:pageshadow="2" inkscape:window-height="698" inkscape:window-width="1024" inkscape:window-x="0" inkscape:window-y="0" inkscape:zoom="2.7008689" pagecolor="#ffffff">
	</sodipodi:namedview>
<g id="g1088" transform="matrix(.98664 .26437 -.26437 .98664 4.8396 -7.1028)">
	<path id="path1710" sodipodi:nodetypes="ccccccccccccccccccccccccccccccccccccccccccc" class="st0" d="M29.3,3.1
		c2.3,0,4.5,0.4,6.5,1c2,0.7,3.8,1.7,5.3,3c1.5,1.3,2.8,2.9,3.6,4.8c0.9,1.9,1.3,4,1.3,6.3c0,4.1-1,7.3-3.1,9.6
		c-2.1,2.3-4.9,3.8-8.5,4.5v1.3c0,1.1-0.2,2-0.7,2.8c-0.4,0.8-1.1,1.4-1.9,1.9c-0.8,0.4-1.7,0.7-2.7,0.7c-1,0-1.9-0.2-2.7-0.7
		c-0.8-0.5-1.4-1.1-1.9-1.9c-0.4-0.8-0.7-1.8-0.7-2.8v-5.4c0-1.1,0.2-2,0.7-2.6c0.5-0.6,1-1,1.7-1.2c0.7-0.2,1.7-0.5,3-0.7
		c3.4-0.6,5.1-2.4,5.1-5.2c0-1.1-0.5-2.2-1.4-3.1c-0.9-0.9-2.1-1.4-3.6-1.4c-1.4,0-2.4,0.3-3.2,0.8c-0.8,0.5-1.5,1.3-2.3,2.3
		c-0.7,1-1.5,1.8-2.2,2.3c-0.7,0.5-1.6,0.7-2.8,0.7c-1.3,0-2.5-0.5-3.4-1.5c-0.9-1-1.4-2.2-1.4-3.6c0-2.4,0.8-4.6,2.4-6.4
		c1.6-1.8,3.6-3.2,5.9-4.2C24.6,3.6,27,3.1,29.3,3.1z M29,45c1,0,2,0.3,2.9,0.8c0.9,0.5,1.6,1.3,2.1,2.2c0.5,0.9,0.8,1.9,0.8,2.9
		c0,1.1-0.3,2.1-0.8,3c-0.5,0.9-1.2,1.6-2.2,2.1C31,56.6,30,56.9,29,56.9c-1,0-2-0.3-2.9-0.8c-0.9-0.5-1.6-1.2-2.2-2.1
		c-0.5-0.9-0.8-1.9-0.8-3c0-1.1,0.3-2,0.8-2.9c0.6-0.9,1.3-1.6,2.2-2.2C27,45.3,28,45,29,45z"/>
	<path id="path839" sodipodi:nodetypes="ccccccccccccccccccccccccccccccccccccccccccc" class="st1" d="M29.3,3.1
		c2.3,0,4.5,0.4,6.5,1c2,0.7,3.8,1.7,5.3,3c1.5,1.3,2.8,2.9,3.6,4.8c0.9,1.9,1.3,4,1.3,6.3c0,4.1-1,7.3-3.1,9.6
		c-2.1,2.3-4.9,3.8-8.5,4.5v1.3c0,1.1-0.2,2-0.7,2.8c-0.4,0.8-1.1,1.4-1.9,1.9c-0.8,0.4-1.7,0.7-2.7,0.7c-1,0-1.9-0.2-2.7-0.7
		c-0.8-0.5-1.4-1.1-1.9-1.9c-0.4-0.8-0.7-1.8-0.7-2.8v-5.4c0-1.1,0.2-2,0.7-2.6c0.5-0.6,1-1,1.7-1.2c0.7-0.2,1.7-0.5,3-0.7
		c3.4-0.6,5.1-2.4,5.1-5.2c0-1.1-0.5-2.2-1.4-3.1c-0.9-0.9-2.1-1.4-3.6-1.4c-1.4,0-2.4,0.3-3.2,0.8c-0.8,0.5-1.5,1.3-2.3,2.3
		c-0.7,1-1.5,1.8-2.2,2.3c-0.7,0.5-1.6,0.7-2.8,0.7c-1.3,0-2.5-0.5-3.4-1.5c-0.9-1-1.4-2.2-1.4-3.6c0-2.4,0.8-4.6,2.4-6.4
		c1.6-1.8,3.6-3.2,5.9-4.2C24.6,3.6,27,3.1,29.3,3.1z M29,45c1,0,2,0.3,2.9,0.8c0.9,0.5,1.6,1.3,2.1,2.2c0.5,0.9,0.8,1.9,0.8,2.9
		c0,1.1-0.3,2.1-0.8,3c-0.5,0.9-1.2,1.6-2.2,2.1C31,56.6,30,56.9,29,56.9c-1,0-2-0.3-2.9-0.8c-0.9-0.5-1.6-1.2-2.2-2.1
		c-0.5-0.9-0.8-1.9-0.8-3c0-1.1,0.3-2,0.8-2.9c0.6-0.9,1.3-1.6,2.2-2.2C27,45.3,28,45,29,45z"/>
</g>
</svg>
