<?xml version="1.0" encoding="utf-8"?>
<!-- Generator: Adobe Illustrator 22.1.0, SVG Export Plug-In . SVG Version: 6.00 Build 0)  -->
<svg version="1.1"
	 id="svg0" xmlns:cc="http://web.resource.org/cc/" xmlns:dc="http://purl.org/dc/elements/1.1/" xmlns:rdf="http://www.w3.org/1999/02/22-rdf-syntax-ns#" xmlns:svg="http://www.w3.org/2000/svg"
	 xmlns="http://www.w3.org/2000/svg" xmlns:xlink="http://www.w3.org/1999/xlink" x="0px" y="0px" viewBox="0 0 48 48"
	 style="enable-background:new 0 0 48 48;" xml:space="preserve">
<style type="text/css">
	.st0{fill:url(#star_1_);stroke:#FFCE00;}
	.st1{opacity:0.8;fill:url(#hl_1_);enable-background:new    ;}
	.st2{opacity:0.69;fill:none;stroke:#FFFFFF;enable-background:new    ;}
</style>
<radialGradient id="star_1_" cx="-140.6924" cy="845.4615" r="22" gradientTransform="matrix(1 -0.2 0.2 1 -3.8 -847.6)" gradientUnits="userSpaceOnUse">
	<stop  offset="0" style="stop-color:#E6CF00"/>
	<stop  offset="1" style="stop-color:#FDE94A"/>
</radialGradient>
<path id="star" class="st0" d="M37.3,43.5L24,36.8l-13.3,6.6l2.6-14.1l-10.7-10l14.9-2l6.7-12.8l6.6,12.8l14.9,2.1l-10.8,10
	L37.3,43.5z"/>
<linearGradient id="hl_1_" gradientUnits="userSpaceOnUse" x1="19.8456" y1="749.2764" x2="29.2166" y2="777.0781" gradientTransform="matrix(1 0 0 1 0 -742)">
	<stop  offset="0" style="stop-color:#FCF9FB"/>
	<stop  offset="1" style="stop-color:#FCF9FB;stop-opacity:0"/>
</linearGradient>
<path id="hl" class="st1" d="M17.7,17.8L24,5.6l6.3,12.2l14.1,2l-3.6,3.4c-16.4-3.7-9.5,7.2-27.6,9.2l0.6-3.2L3.7,19.7L17.7,17.8z"
	/>
<path id="ol" class="st2" d="M36,41.7l-11.9-6l-11.9,6L14.4,29l-9.6-8.9l13.3-1.8l6-11.6l6,11.6l13.3,1.9L33.7,29L36,41.7L36,41.7z"
	/>
</svg>
